<?xml version="1.0" encoding="utf-8"?>
<svg viewBox="-245.692 -80.532 975.004 581.897" xmlns="http://www.w3.org/2000/svg">
  <path fill="#F28821" opacity="1.000000" stroke="none" d="M 248.5 495.487 C 117.506 495.485 -12.988 495.61 -143.481 495.392 C -176.539 495.337 -203.201 481.577 -222.178 454.364 C -250.097 414.329 -244.809 363.387 -210.129 328.943 C -156.568 275.746 -103.237 222.317 -49.82 168.975 C 25.761 93.5 101.132 17.813 176.992 -57.381 C 213.894 -93.959 274.035 -93.899 311.011 -57.39 C 366.268 -2.832 420.978 52.279 475.921 107.154 C 547.605 178.751 619.268 250.369 690.997 321.919 C 702.605 333.498 713.609 345.363 720.292 360.727 C 735.734 396.227 726.939 440.743 699.043 467.828 C 679.899 486.414 657.018 495.462 630.482 495.468 C 503.321 495.497 376.161 495.485 248.5 495.487 M -66.748 242.692 C -67.1 242.79 -67.319 243.016 -68.033 243.732 C -72.316 252.317 -69.681 256.501 -59.963 256.541 C -58.297 256.548 -56.631 256.542 -54.965 256.542 C 9.352 256.544 73.669 256.594 137.985 256.434 C 142.053 256.423 143.89 257.691 145.183 261.345 C 147.235 267.143 149.633 272.832 152.149 278.448 C 154.215 283.057 158.07 285.059 163.086 284.638 C 167.994 284.225 170.875 281.251 172.419 276.81 C 172.908 275.403 173.148 273.909 173.49 272.452 C 176.245 260.725 178.996 248.998 182.014 236.142 C 182.815 238.277 183.286 239.3 183.589 240.371 C 187.979 255.893 192.296 271.436 196.744 286.942 C 198.438 292.845 202.648 296.259 207.649 296.2 C 212.83 296.14 216.978 292.368 218.493 286.214 C 220.52 277.979 222.719 269.774 224.369 261.463 C 225.194 257.311 227.053 256.191 231.091 256.397 C 234.073 256.549 235.712 257.373 236.43 260.232 C 236.793 261.676 237.414 263.059 237.964 264.451 C 240.079 269.804 243.882 272.615 248.792 272.48 C 253.863 272.341 257.804 269.04 259.286 263.378 C 261.46 255.076 263.481 246.735 265.567 238.41 C 270.375 255.06 274.258 271.565 278.335 288.023 C 279.778 293.85 283.705 297.107 288.676 297.298 C 293.553 297.484 297.694 294.285 299.554 288.654 C 301.641 282.337 303.58 275.969 305.583 269.624 C 308.607 260.042 311.631 250.461 314.719 240.678 C 315.386 241.237 315.735 241.397 315.87 241.665 C 316.391 242.703 316.941 243.742 317.307 244.839 C 320.189 253.461 326.04 257 335.189 256.663 C 347.835 256.197 360.512 256.626 373.174 256.475 C 375.894 256.443 377.392 257.219 378.512 259.745 C 380.465 264.152 382.776 268.403 384.985 272.695 C 388.126 278.8 391.68 281.08 396.993 280.479 C 401.948 279.919 405.078 276.561 406.691 269.907 C 410.403 254.596 414.074 239.275 418.087 222.608 C 418.914 225.042 419.393 226.192 419.698 227.386 C 424.641 246.725 429.566 266.068 434.484 285.412 C 436.259 292.395 440.29 296.261 445.729 296.148 C 451.231 296.033 454.912 292.553 456.628 285.66 C 458.677 277.43 460.763 269.205 462.57 260.92 C 463.295 257.598 464.632 256.426 468.23 256.454 C 492.722 256.642 517.216 256.551 541.71 256.544 C 546.875 256.543 552.04 256.543 557.205 256.49 C 561.305 256.448 563.291 253.364 563.593 250.215 C 563.768 248.39 561.132 246.295 559.52 243.519 C 557.823 243.15 556.125 242.465 554.427 242.461 C 524.459 242.396 494.49 242.398 464.521 242.453 C 462.764 242.457 461.009 243.031 458.642 243.695 C 453.242 244.896 451.016 248.89 449.679 253.747 C 448.579 257.748 447.34 261.711 446.162 265.691 C 445.681 265.694 445.201 265.698 444.72 265.702 C 444.122 264.133 443.36 262.605 442.949 260.988 C 438.401 243.104 433.901 225.209 429.404 207.312 C 427.691 200.496 423.554 196.567 418.06 196.603 C 412.71 196.639 408.874 200.296 407.2 207.092 C 405.252 215 403.376 222.926 401.466 230.843 C 399.257 239.996 397.046 249.149 394.466 259.833 C 392.664 256.283 391.476 254.174 390.497 251.971 C 387.529 245.287 382.569 242.162 375.141 242.378 C 365.988 242.644 356.72 241.582 347.685 242.649 C 335.726 244.062 327.916 240.842 325.666 228.229 C 325.581 227.75 325.284 227.311 325.093 226.849 C 323.062 221.923 319.583 218.954 314.065 219.048 C 309.071 219.134 305.504 222.322 303.643 228.258 C 300.16 239.365 296.76 250.498 293.281 261.606 C 292.267 264.846 291.101 268.038 289.505 272.715 C 288.565 269.386 287.984 267.568 287.539 265.717 C 283.884 250.525 280.322 235.311 276.579 220.141 C 275.294 214.933 271.042 211.623 266.257 211.552 C 261.468 211.481 257.134 214.811 255.583 219.821 C 255.141 221.248 254.864 222.725 254.493 224.175 C 252.385 232.424 250.271 240.672 248.335 248.236 C 244.351 246.191 240.923 243.745 237.11 242.683 C 233.86 241.778 230.167 242.435 226.669 242.45 C 218.008 242.486 213.57 246.067 211.51 254.566 C 210.267 259.692 208.954 264.802 207.309 271.373 C 206.38 268.377 205.879 266.88 205.451 265.362 C 201.127 249.999 196.886 234.612 192.459 219.279 C 190.89 213.844 186.413 210.632 181.442 210.806 C 176.66 210.973 172.876 214.281 171.32 219.679 C 170.998 220.796 170.728 221.929 170.461 223.061 C 167.431 235.892 164.406 248.725 161.147 262.543 C 157.06 254.368 156.101 245.097 145.888 241.859 C 145.246 241.721 144.603 241.463 143.961 241.463 C 75.157 241.448 6.354 241.446 -62.45 241.513 C -63.753 241.514 -65.055 242.349 -66.368 242.666 C -66.368 242.666 -66.253 242.728 -66.748 242.692 M 297.209 364.153 C 297.162 364.576 297.115 364.999 296.367 365.72 C 296.089 366.464 295.573 367.207 295.57 367.952 C 295.521 382.763 295.497 397.574 295.604 412.383 C 295.612 413.42 296.678 414.449 297.475 415.878 C 297.475 415.878 297.594 416.316 297.678 417.137 C 301.142 417.572 304.601 418.056 308.072 418.43 C 312.783 418.938 314.611 416.802 314.543 412.054 C 314.356 398.924 314.476 385.79 314.476 372.657 C 314.475 362.51 314.476 362.51 324.683 362.446 C 330.685 362.408 331.5 361.367 331.486 353.77 C 331.474 347.196 330.816 346.504 324.461 346.499 C 312.159 346.489 299.858 346.491 287.557 346.492 C 278.327 346.492 278.327 346.494 278.521 355.497 C 278.639 361.003 280.07 362.255 285.779 362.483 C 289.55 362.634 293.306 363.165 297.209 364.153 M 351.674 414.922 C 351.693 415.255 351.711 415.588 351.837 416.764 C 355.803 419.469 364.541 419.168 367.488 415.327 C 367.488 397.443 367.488 379.559 367.488 361.116 C 372.307 361.116 376.418 361.073 380.527 361.131 C 383.388 361.171 384.913 360.085 384.626 357 C 384.487 355.517 384.455 353.996 384.622 352.521 C 385.043 348.802 383.447 347.572 379.782 347.613 C 365.17 347.776 350.555 347.718 335.082 347.685 C 334.612 348.086 333.835 348.412 333.717 348.899 C 331.112 359.639 333.27 362.437 344.072 362.445 C 344.736 362.446 345.411 362.524 346.063 362.435 C 349.565 361.963 350.631 363.466 350.591 366.941 C 350.425 381.053 350.487 395.169 350.565 409.283 C 350.574 411.005 351.184 412.723 351.674 414.922 M 121.051 295.238 C 122.283 306.085 128.544 313.628 138.608 319.937 C 124.981 321.178 112.6 320.907 100.725 324.914 C 104.092 326.263 107.445 327.183 110.842 327.387 C 132.769 328.702 154.693 330.548 176.641 330.94 C 242.423 332.112 308.218 332.738 373.929 328.295 C 380.037 327.882 386.094 326.715 392.175 325.897 C 392.167 325.065 392.158 324.233 392.149 323.402 C 379.981 322.182 367.813 320.962 354.341 319.611 C 362.272 315.016 367.645 309.564 370.051 301.996 C 373.757 290.34 371.414 278.369 372.084 266.381 C 367.438 266.381 363.711 266.381 359.603 266.381 C 359.603 269.946 359.604 273.093 359.603 276.24 C 359.601 280.738 359.604 285.236 359.594 289.734 C 359.564 302.781 352.663 309.743 339.504 309.75 C 277.867 309.781 216.228 309.523 154.594 309.951 C 141.147 310.044 132.141 301.594 133.103 288.596 C 133.687 280.695 133.21 272.716 133.21 264.695 C 128.753 264.695 125.004 264.695 120.866 264.695 C 120.866 274.801 120.866 284.584 121.051 295.238 M 159.38 158.821 C 150.94 164.953 141.733 170.273 134.219 177.383 C 117.913 192.814 120.407 213.255 120.997 233.216 C 125.158 233.216 128.994 233.216 133.2 233.216 C 133.2 226.614 133.559 220.449 133.131 214.339 C 131.951 197.499 139.983 185.625 153.174 176.622 C 172.061 163.73 193.46 157.597 215.889 155.67 C 243.722 153.279 270.777 157.834 296.219 169.435 C 325.357 182.721 351.998 198.974 360.48 233.273 C 364.045 233.273 367.776 233.273 371.384 233.273 C 371.384 222.581 371.839 212.265 371.184 202.019 C 370.876 197.199 368.997 192.243 366.859 187.817 C 358.783 171.096 344.276 161.557 327.89 154.516 C 308.89 146.35 288.842 142.554 268.29 141.196 C 230.899 138.724 194.511 142.561 159.38 158.821 M 225.458 351.866 C 220.909 355.998 219.641 361.436 219.601 367.235 C 219.513 380.051 219.446 392.87 219.603 405.685 C 219.759 418.466 217.112 416.438 231.099 416.788 C 234.736 416.879 235.682 415.496 235.578 412.126 C 235.382 405.702 235.521 399.269 235.521 392.884 C 242.61 392.884 248.981 392.884 255.619 392.884 C 255.619 397.304 255.542 401.293 255.633 405.279 C 255.941 418.839 253.001 416.44 267.733 416.745 C 270.495 416.803 271.574 415.807 271.557 412.976 C 271.458 396.997 271.697 381.014 271.396 365.04 C 271.21 355.162 265.722 348.84 256.088 347.773 C 249.189 347.009 242.108 347.242 235.168 347.79 C 232.048 348.037 229.075 350.14 225.458 351.866 M 431.264 416.613 C 434.592 416.644 437.924 416.578 441.246 416.736 C 444.279 416.881 445.367 415.552 445.353 412.595 C 445.279 397.279 445.543 381.958 445.242 366.647 C 444.995 354.097 438.421 347.813 425.878 347.387 C 421.555 347.24 417.219 347.237 412.896 347.375 C 399.685 347.798 393.482 354.151 393.405 367.382 C 393.33 380.201 393.251 393.023 393.42 405.839 C 393.585 418.341 390.894 416.498 404.534 416.779 C 408.32 416.857 409.497 415.397 409.384 411.789 C 409.19 405.524 409.33 399.247 409.33 392.824 C 416.324 392.824 422.691 392.824 429.43 392.824 C 429.43 395.997 429.324 398.806 429.454 401.604 C 429.682 406.51 430.055 411.41 431.264 416.613 M 533.101 396.405 C 536.586 402.08 540.03 407.781 543.586 413.41 C 544.357 414.63 545.486 416.475 546.529 416.53 C 552.332 416.834 558.16 416.676 565.127 416.676 C 557.767 405.65 551.344 395.761 544.611 386.087 C 542.397 382.905 542.074 380.632 544.581 377.322 C 550.708 369.23 556.37 360.786 562.186 352.46 C 562.98 351.323 563.586 350.054 564.336 348.745 C 553.516 345.363 547.537 347.277 541.893 355.595 C 539.462 359.178 537.067 362.786 534.625 366.361 C 532.158 369.973 529.653 373.558 527.164 377.155 C 526.203 370.591 526.255 364.469 526.191 358.348 C 526.068 346.34 527.622 347.89 515.564 347.58 C 511.11 347.465 509.83 349.021 509.876 353.333 C 510.064 371.154 509.92 388.979 509.97 406.803 C 510 417.425 508.551 416.931 520.22 417.084 C 524.686 417.142 526.466 415.692 526.283 411.039 C 525.973 403.159 526.198 395.257 526.198 387.365 C 526.54 387.279 526.881 387.193 527.223 387.107 C 529.05 390.002 530.877 392.898 533.101 396.405 M 456.497 390.726 C 457.659 405.898 464.154 414.742 477.12 416.905 C 483.058 417.896 489.345 416.836 495.472 416.647 C 498.911 416.541 500.058 414.521 499.726 411.318 C 499.624 410.33 499.609 409.31 499.726 408.324 C 500.176 404.536 498.996 402.764 494.765 403.325 C 491.155 403.804 487.449 403.691 483.789 403.629 C 477.718 403.526 474.392 401.067 473.457 394.969 C 472.631 389.582 472.645 384.049 472.524 378.576 C 472.196 363.769 477.125 359.181 491.212 361.067 C 499.957 362.238 499.864 361.784 499.783 353.01 C 499.754 349.839 498.528 348.337 495.602 348.031 C 491.634 347.617 487.659 347.127 483.677 347.016 C 469.636 346.625 459.411 354.656 457.408 368.389 C 456.384 375.414 456.746 382.642 456.497 390.726 M 93.311 366.287 C 92.298 352.088 87.401 347.436 73.287 347.285 C 71.124 347.262 68.961 347.259 66.798 347.299 C 53.38 347.544 47.686 353.197 47.619 366.566 C 47.542 381.54 47.641 396.514 47.575 411.487 C 47.562 414.577 47.598 417.04 51.828 417.113 C 56.324 417.19 56.441 414.612 56.392 411.296 C 56.277 403.536 56.355 395.773 56.355 387.833 C 66.052 387.833 75.094 387.833 84.572 387.833 C 84.572 396.29 84.728 404.415 84.507 412.53 C 84.396 416.614 86.35 417.24 89.755 416.959 C 93.391 416.66 93.335 414.269 93.331 411.645 C 93.303 396.837 93.315 382.03 93.311 366.287 M 149.469 356.239 C 145.195 353.594 141.181 349.419 136.59 348.638 C 128.331 347.235 119.728 347.791 111.267 347.686 C 107.85 347.643 107.502 350.054 107.511 352.863 C 107.576 372.688 107.608 392.514 107.483 412.339 C 107.461 415.814 108.542 416.976 112.079 416.971 C 115.72 416.966 116.2 415.139 116.181 412.275 C 116.127 404.185 116.162 396.093 116.162 387.633 C 118.81 387.801 120.652 388.217 122.401 387.971 C 127.258 387.289 129.918 389.471 132.121 393.676 C 135.516 400.155 139.562 406.292 143.346 412.566 C 146.186 417.276 148.702 418.029 155.148 415.674 C 149.435 406.103 143.783 396.634 138.137 387.176 C 152.083 379.009 155.659 369.407 149.469 356.239 M -17.791 357.094 C -17.801 355.096 -17.319 352.914 -17.975 351.156 C -18.509 349.722 -20.244 348.138 -21.728 347.779 C -24.865 347.021 -26.636 348.382 -26.549 352.067 C -26.359 360.143 -26.49 368.226 -26.49 376.073 C -37.577 376.073 -47.8 376.073 -58.304 376.073 C -58.304 367.817 -58.391 360.005 -58.261 352.196 C -58.209 349.114 -59.11 347.582 -62.472 347.575 C -65.849 347.569 -66.681 349.118 -66.668 352.193 C -66.584 372.344 -66.559 392.496 -66.688 412.647 C -66.71 416.026 -65.306 416.974 -62.274 417.056 C -59.169 417.139 -58.227 415.73 -58.269 412.825 C -58.381 405.166 -58.328 397.504 -58.305 389.843 C -58.299 388.096 -58.151 386.35 -58.075 384.73 C -47.213 384.73 -36.997 384.73 -26.489 384.73 C -26.489 394.314 -26.379 403.46 -26.547 412.6 C -26.608 415.907 -25.28 416.961 -22.166 417.069 C -17.938 417.214 -17.766 414.617 -17.772 411.524 C -17.808 393.704 -17.79 375.884 -17.791 357.094 M -3.513 366.102 C -3.51 377.591 -3.598 389.08 -3.477 400.568 C -3.365 411.218 2.108 416.902 12.788 417.386 C 18.437 417.642 24.109 417.492 29.767 417.387 C 35.947 417.273 36.404 416.526 34.509 409.603 C 27.547 409.603 20.419 409.664 13.293 409.577 C 9.787 409.533 6.025 408.722 5.704 404.651 C 5.189 398.125 5.566 391.528 5.566 384.567 C 14.197 384.567 22.328 384.548 30.459 384.579 C 33.069 384.588 35.469 384.771 35.524 380.927 C 35.582 376.891 32.957 377.398 30.467 377.397 C 22.198 377.394 13.928 377.396 5.267 377.396 C 5.267 372.071 5.323 367.437 5.251 362.805 C 5.174 357.821 7.775 355.453 12.527 355.22 C 16.016 355.049 19.513 355.026 23.008 354.995 C 27.07 354.959 31.132 354.986 34.755 354.986 C 36.622 348.886 34.71 347.122 29.755 347.371 C 24.609 347.63 19.433 347.217 14.275 347.331 C 2.013 347.604 -3.191 352.882 -3.513 366.102 M 181.563 389.97 C 181.562 397.126 181.581 404.282 181.552 411.437 C 181.54 414.338 181.144 417.106 185.625 417.142 C 189.958 417.178 190.422 414.933 190.403 411.473 C 190.312 394.666 190.363 377.859 190.364 361.051 C 190.364 359.289 190.364 357.527 190.364 355.289 C 196.019 355.289 200.98 355.216 205.937 355.318 C 208.723 355.375 210.336 354.63 210.325 351.429 C 210.314 348.182 208.571 347.582 205.855 347.593 C 192.709 347.643 179.562 347.63 166.416 347.6 C 163.682 347.594 161.499 347.814 161.499 351.505 C 161.499 355.259 163.755 355.334 166.454 355.303 C 171.366 355.247 176.279 355.287 181.563 355.287 C 181.563 367.055 181.563 378.013 181.563 389.97 M 229.57 93.089 C 224.008 108.969 230.427 122.333 238.31 124.092 C 237.148 120.857 235.64 117.447 234.709 113.886 C 233.294 108.468 235.619 103.485 237.256 98.504 C 239.436 91.871 242.217 85.414 244.047 78.693 C 246.859 68.361 244.711 58.883 237.454 50.825 C 236.409 49.665 234.791 49.02 233.438 48.137 C 237.815 58.557 238.598 68.477 234.701 78.699 C 232.982 83.205 231.425 87.773 229.57 93.089 M 262.954 79.283 C 264.334 68.478 259.486 61.084 250.374 60.651 C 255.911 67.489 255.668 74.627 252.552 82.26 C 250.306 87.763 248.423 93.477 247.055 99.256 C 245.903 104.127 246.872 108.938 249.788 112.699 C 252.289 106.403 254.766 100.168 257.244 93.934 C 259.078 89.321 260.914 84.708 262.954 79.283 M 133.553 454.035 C 135.527 447.786 137.502 441.536 139.596 434.906 C 137.929 434.906 136.266 434.621 136.136 434.949 C 133.907 440.522 131.869 446.172 129.564 452.413 C 128.115 447.798 126.964 443.502 125.375 439.374 C 124.7 437.621 123.106 436.221 121.93 434.66 C 120.835 436.1 119.47 437.411 118.699 439.008 C 117.085 442.35 115.783 445.844 114.353 449.275 C 113.945 449.327 113.538 449.379 113.131 449.431 C 112.04 445.566 110.805 441.735 109.904 437.827 C 109.217 434.85 107.815 433.888 104.538 435.37 C 106.593 442.32 108.571 449.304 110.787 456.212 C 111.163 457.385 112.827 459.194 113.434 459.027 C 114.725 458.672 116.233 457.419 116.733 456.168 C 118.597 451.495 120.09 446.674 121.953 441.236 C 123.564 446.288 124.774 450.613 126.362 454.795 C 126.985 456.437 128.456 457.758 129.54 459.225 C 130.81 457.748 132.079 456.271 133.553 454.035 M 447.449 458.038 C 448.4 457.647 449.351 457.255 450.302 456.864 C 450.294 459.806 449.821 463.306 448.294 463.85 C 444.512 465.198 440.248 465.195 435.551 465.818 C 435.88 466.424 436.182 467.926 437.062 468.442 C 443.769 472.379 454.206 467.946 454.931 460.261 C 455.718 451.918 455.109 443.444 455.109 434.167 C 453.259 435.103 451.899 435.792 450.289 436.607 C 445.239 433.475 440.415 433.53 436.662 437.065 C 432.661 440.832 431.548 448.088 434.179 453.247 C 436.629 458.05 440.811 459.752 447.449 458.038 M 324.437 425.417 C 323.127 424.679 321.816 423.941 319.38 422.57 C 319.38 428.213 319.38 432.052 319.38 436.061 C 311.713 433.276 307.348 434.11 304.054 438.67 C 300.511 443.574 300.688 451.499 304.439 455.942 C 308.178 460.37 312.082 460.598 319.284 457.216 C 320.914 458.018 322.056 458.579 323.197 459.141 C 323.63 458.028 324.43 456.919 324.44 455.802 C 324.527 445.98 324.473 436.157 324.437 425.417 M 260.924 442.941 C 261.059 447.426 261.081 451.919 261.417 456.389 C 261.49 457.359 262.683 458.245 263.361 459.17 C 264.109 458.323 265.474 457.495 265.502 456.625 C 265.663 451.634 265.874 446.594 265.363 441.644 C 264.752 435.732 258.87 432.77 253.36 435.179 C 252.199 435.686 251.122 436.383 249.444 437.299 C 249.444 432.506 249.444 428.245 249.444 423.984 C 249.035 423.661 248.625 423.338 248.216 423.015 C 247.113 424.014 245.075 424.991 245.05 426.016 C 244.806 436.175 244.826 446.343 245.01 456.505 C 245.027 457.408 246.73 458.281 247.649 459.167 C 248.27 458.204 249.369 457.268 249.425 456.273 C 249.639 452.452 248.974 448.501 249.72 444.819 C 250.194 442.479 252.143 439.676 254.217 438.608 C 257.034 437.157 259.679 438.8 260.924 442.941 M 396.667 451.852 C 396.669 453.183 396.352 454.622 396.759 455.815 C 397.189 457.077 398.307 458.105 399.125 459.236 C 399.902 458.074 401.249 456.958 401.349 455.74 C 401.649 452.105 401.358 448.426 401.49 444.771 C 401.627 440.958 403.449 438.326 407.523 438.267 C 411.717 438.207 412.711 441.211 412.786 444.683 C 412.868 448.507 412.655 452.348 412.951 456.151 C 413.035 457.231 414.447 458.207 415.25 459.23 C 416.017 458.241 417.353 457.302 417.444 456.255 C 417.73 452.953 417.561 449.61 417.545 446.283 C 417.489 435.091 411.669 431.524 402.324 436.44 C 400.562 435.847 399.135 435.367 397.708 434.886 C 397.353 436.227 396.736 437.559 396.692 438.91 C 396.561 442.898 396.657 446.893 396.667 451.852 M 156.357 436.62 C 151.749 440.716 150.551 445.795 152.33 451.551 C 153.729 456.078 156.88 458.85 161.64 459.478 C 167.106 460.2 171.845 457.708 174.08 453.115 C 176.562 448.016 175.749 441.423 172.18 437.7 C 168.445 433.802 163.295 433.297 156.357 436.62 M 516.083 451.929 C 519.521 458.804 525.188 461.323 531.534 458.798 C 537.433 456.452 540.494 449.68 538.652 443.056 C 536.855 436.596 531.706 433.37 524.967 434.483 C 517.89 435.653 514.679 441.486 516.083 451.929 M 345.371 468.002 C 352.388 461.856 353.964 452.852 357.453 444.866 C 358.794 441.795 359.738 438.55 361.025 434.93 C 359.087 434.93 357.446 434.624 357.29 434.975 C 354.776 440.654 352.451 446.416 349.892 452.622 C 347.97 447.433 346.116 442.648 344.435 437.803 C 343.429 434.905 341.853 433.829 338.97 435.261 C 339.002 435.761 338.943 436.113 339.054 436.399 C 341.268 442.126 343.103 448.044 345.843 453.508 C 348.483 458.77 346.327 461.86 342.543 464.993 C 341.531 465.831 341.125 467.399 340.441 468.631 C 341.887 468.563 343.332 468.495 345.371 468.002 M 67.184 458.909 C 67.918 458.18 68.651 457.451 69.384 456.722 C 68.46 456.301 67.557 455.589 66.609 455.522 C 64.804 455.395 62.955 455.846 61.158 455.685 C 56.44 455.261 54.687 453.02 55.076 447.632 C 60.266 447.632 65.507 447.632 70.645 447.632 C 71.617 441.104 69.013 436.031 64.374 434.673 C 58.646 432.997 52.872 435.944 50.694 441.656 C 46.449 452.788 53.46 460.626 67.184 458.909 M -22.837 459.151 C -20.55 455.34 -20.966 440.594 -23.452 437.345 C -26.05 433.949 -35.073 433.119 -38.04 436.143 C -38.485 436.597 -38.102 437.864 -38.102 438.812 C -28.158 437.042 -27.275 437.378 -26.678 443.082 C -29.082 443.572 -31.544 443.909 -33.907 444.589 C -38.994 446.053 -41.646 450.411 -40.263 454.735 C -38.888 459.035 -34.208 460.557 -29.062 458.847 C -27.467 458.317 -25.453 459.047 -22.837 459.151 M 503.812 436.893 C 502.151 435.743 500.491 434.593 498.546 433.246 C 498.405 428.274 498.658 428.004 503.618 426.579 C 504.473 426.333 505.101 425.294 505.834 424.621 C 505.109 424.07 504.459 423.236 503.644 423.018 C 499.913 422.016 495.931 424.605 494.292 428.684 C 493.348 431.035 494.402 434.556 490.598 435.434 C 490.491 435.459 490.612 437.86 490.878 437.914 C 494.712 438.691 493.335 441.69 493.431 443.888 C 493.598 447.712 493.267 451.566 493.589 455.37 C 493.703 456.718 495.115 457.956 495.934 459.244 C 496.703 457.897 498.07 456.578 498.135 455.198 C 498.393 449.759 498.241 444.3 498.241 439.102 C 500.449 438.478 501.994 438.042 503.812 436.893 M -59.647 445.01 C -59.647 442.918 -59.647 440.825 -59.647 439.581 C -56.984 438.424 -55.294 437.69 -53.604 436.956 C -55.379 435.754 -57.154 434.553 -59.468 432.986 C -59.577 432.473 -59.874 431.069 -60.227 429.403 C -61.274 429.593 -62.312 429.466 -62.788 429.924 C -64.504 431.577 -66.038 433.421 -67.621 435.21 C -67.83 435.446 -68.099 435.836 -68.033 436.067 C -67.824 436.799 -67.529 438.071 -67.162 438.108 C -63.428 438.489 -64.539 441.298 -64.449 443.396 C -64.308 446.718 -64.6 450.075 -64.248 453.368 C -63.755 457.976 -60.694 460.243 -56.334 459.463 C -55.41 459.298 -54.63 458.328 -53.783 457.728 C -54.486 457.022 -55.156 455.75 -55.898 455.706 C -59.108 455.52 -59.689 453.564 -59.651 450.959 C -59.627 449.296 -59.647 447.632 -59.647 445.01 M -3.69 436.788 C -6.714 442.033 -5.912 444.935 -0.67 447.644 C 0.655 448.328 2.253 448.709 3.272 449.697 C 4.201 450.598 5.199 452.325 4.915 453.335 C 4.615 454.398 2.931 455.452 1.668 455.76 C 0.304 456.093 -1.284 455.371 -2.752 455.465 C -3.786 455.532 -4.782 456.192 -5.795 456.587 C -5.142 457.328 -4.563 458.61 -3.822 458.712 C -1.237 459.067 1.814 459.88 3.915 458.886 C 6.241 457.784 8.852 455.066 9.22 452.721 C 9.535 450.71 7.102 448.023 5.411 446.038 C 4.425 444.881 2.302 444.761 1.075 443.72 C 0.094 442.887 -1.147 440.893 -0.787 440.259 C -0.105 439.058 1.575 438.302 2.983 437.691 C 3.601 437.423 4.591 438.168 5.374 438.086 C 6.357 437.983 7.3 437.504 8.261 437.187 C 7.483 436.336 6.645 434.713 5.937 434.767 C 2.911 435.001 -0.077 435.729 -3.69 436.788 M 223.722 444.98 C 223.689 441.495 223.036 437.594 228.699 438.208 C 229.138 438.256 230.216 436.994 230.098 436.661 C 229.827 435.901 229.105 435.017 228.371 434.773 C 227.166 434.372 225.805 434.439 224.501 434.309 C 223.979 432.568 223.523 431.05 222.805 428.659 C 220.122 431.456 217.874 433.708 215.79 436.104 C 215.569 436.359 216.274 438.043 216.607 438.062 C 220.41 438.277 219.368 441.092 219.435 443.213 C 219.539 446.539 219.29 449.887 219.559 453.196 C 219.928 457.747 222.615 459.99 226.817 459.441 C 227.788 459.314 228.665 458.463 229.586 457.945 C 228.79 457.166 227.949 456.427 227.209 455.598 C 226.121 454.379 224.643 453.245 224.175 451.801 C 223.58 449.963 223.828 447.853 223.722 444.98 M 31.711 454.724 C 31.199 449.413 30.686 444.101 30.263 439.716 C 33.266 438.375 35.066 437.571 36.866 436.767 C 34.983 435.668 33.101 434.568 30.8 433.224 C 30.663 432.49 30.399 431.069 29.898 428.379 C 27.023 431.46 24.745 433.83 22.611 436.325 C 22.442 436.523 23.285 437.578 23.648 438.241 C 24.538 439.865 25.979 441.423 26.192 443.132 C 26.62 446.574 25.763 450.26 26.625 453.532 C 27.217 455.78 29.543 457.918 31.636 459.261 C 32.53 459.835 34.803 458.26 36.45 457.662 C 35.092 456.859 33.735 456.055 31.711 454.724 M 194.755 436.287 C 193.86 435.778 192.966 435.27 192.071 434.762 C 191.594 435.675 190.719 436.582 190.704 437.503 C 190.603 443.815 190.576 450.134 190.814 456.441 C 190.85 457.408 192.379 458.319 193.217 459.256 C 193.98 458.249 195.198 457.328 195.406 456.217 C 195.766 454.291 195.482 452.248 195.502 450.254 C 195.553 445.129 194.67 439.517 202.02 438.276 C 202.486 438.197 203.22 436.361 202.936 435.93 C 202.448 435.19 201.109 434.357 200.39 434.549 C 198.575 435.033 196.906 436.066 194.755 436.287 M 554.472 445.986 C 554.472 448.969 554.202 451.988 554.585 454.921 C 554.783 456.441 556.139 457.809 556.973 459.246 C 557.749 457.731 559 456.276 559.199 454.688 C 559.567 451.75 559.325 448.735 559.329 445.752 C 559.332 442.232 560.759 439.851 564.241 438.535 C 565.343 438.119 565.944 436.376 566.774 435.24 C 566.293 434.793 565.813 434.347 565.333 433.901 C 563.189 434.914 561.045 435.927 559.447 436.682 C 558.097 435.96 556.954 435.348 555.811 434.736 C 555.354 435.838 554.601 436.914 554.503 438.047 C 554.305 440.349 554.461 442.682 554.472 445.986 M 379.533 436.549 C 378.576 435.958 377.618 435.367 376.661 434.776 C 376.103 435.831 375.089 436.874 375.062 437.942 C 374.91 443.924 374.862 449.917 375.118 455.891 C 375.166 457.022 376.741 458.088 377.611 459.184 C 378.267 458.086 379.457 457.003 379.489 455.887 C 379.669 449.741 379.565 443.586 379.533 436.549 Z"/>
  <path fill="#281F1B" opacity="1.000000" stroke="none" d="M 146.422 242.488 C 156.101 245.097 157.06 254.368 161.147 262.543 C 164.406 248.725 167.431 235.892 170.461 223.061 C 170.728 221.929 170.998 220.796 171.32 219.679 C 172.876 214.281 176.66 210.973 181.442 210.806 C 186.413 210.632 190.89 213.844 192.459 219.279 C 196.886 234.612 201.127 249.999 205.451 265.362 C 205.879 266.88 206.38 268.377 207.309 271.373 C 208.954 264.802 210.267 259.692 211.51 254.566 C 213.57 246.067 218.008 242.486 226.669 242.45 C 230.167 242.435 233.86 241.778 237.11 242.683 C 240.923 243.745 244.351 246.191 248.335 248.236 C 250.271 240.672 252.385 232.424 254.493 224.175 C 254.864 222.725 255.141 221.248 255.583 219.821 C 257.134 214.811 261.468 211.481 266.257 211.552 C 271.042 211.623 275.294 214.933 276.579 220.141 C 280.322 235.311 283.884 250.525 287.539 265.717 C 287.984 267.568 288.565 269.386 289.505 272.715 C 291.101 268.038 292.267 264.846 293.281 261.606 C 296.76 250.498 300.16 239.365 303.643 228.258 C 305.504 222.322 309.071 219.134 314.065 219.048 C 319.583 218.954 323.062 221.923 325.093 226.849 C 325.284 227.311 325.581 227.75 325.666 228.229 C 327.916 240.842 335.726 244.062 347.685 242.649 C 356.72 241.582 365.988 242.644 375.141 242.378 C 382.569 242.162 387.529 245.287 390.497 251.971 C 391.476 254.174 392.664 256.283 394.466 259.833 C 397.046 249.149 399.257 239.996 401.466 230.843 C 403.376 222.926 405.252 215 407.2 207.092 C 408.874 200.296 412.71 196.639 418.06 196.603 C 423.554 196.567 427.691 200.496 429.404 207.312 C 433.901 225.209 438.401 243.104 442.949 260.988 C 443.36 262.605 444.122 264.133 444.72 265.702 C 445.201 265.698 445.681 265.694 446.162 265.691 C 447.34 261.711 448.579 257.748 449.679 253.747 C 451.016 248.89 453.242 244.896 459.434 243.567 C 491.118 243.454 522.01 243.45 552.901 243.517 C 555.188 243.522 557.474 244.041 559.76 244.321 C 561.132 246.295 563.768 248.39 563.593 250.215 C 563.291 253.364 561.305 256.448 557.205 256.49 C 552.04 256.543 546.875 256.543 541.71 256.544 C 517.216 256.551 492.722 256.642 468.23 256.454 C 464.632 256.426 463.295 257.598 462.57 260.92 C 460.763 269.205 458.677 277.43 456.628 285.66 C 454.912 292.553 451.231 296.033 445.729 296.148 C 440.29 296.261 436.259 292.395 434.484 285.412 C 429.566 266.068 424.641 246.725 419.698 227.386 C 419.393 226.192 418.914 225.042 418.087 222.608 C 414.074 239.275 410.403 254.596 406.691 269.907 C 405.078 276.561 401.948 279.919 396.993 280.479 C 391.68 281.08 388.126 278.8 384.985 272.695 C 382.776 268.403 380.465 264.152 378.512 259.745 C 377.392 257.219 375.894 256.443 373.174 256.475 C 360.512 256.626 347.835 256.197 335.189 256.663 C 326.04 257 320.189 253.461 317.307 244.839 C 316.941 243.742 316.391 242.703 315.87 241.665 C 315.735 241.397 315.386 241.237 314.719 240.678 C 311.631 250.461 308.607 260.042 305.583 269.624 C 303.58 275.969 301.641 282.337 299.554 288.654 C 297.694 294.285 293.553 297.484 288.676 297.298 C 283.705 297.107 279.778 293.85 278.335 288.023 C 274.258 271.565 270.375 255.06 265.567 238.41 C 263.481 246.735 261.46 255.076 259.286 263.378 C 257.804 269.04 253.863 272.341 248.792 272.48 C 243.882 272.615 240.079 269.804 237.964 264.451 C 237.414 263.059 236.793 261.676 236.43 260.232 C 235.712 257.373 234.073 256.549 231.091 256.397 C 227.053 256.191 225.194 257.311 224.369 261.463 C 222.719 269.774 220.52 277.979 218.493 286.214 C 216.978 292.368 212.83 296.14 207.649 296.2 C 202.648 296.259 198.438 292.845 196.744 286.942 C 192.296 271.436 187.979 255.893 183.589 240.371 C 183.286 239.3 182.815 238.277 182.014 236.142 C 178.996 248.998 176.245 260.725 173.49 272.452 C 173.148 273.909 172.908 275.403 172.419 276.81 C 170.875 281.251 167.994 284.225 163.086 284.638 C 158.07 285.059 154.215 283.057 152.149 278.448 C 149.633 272.832 147.235 267.143 145.183 261.345 C 143.89 257.691 142.053 256.423 137.985 256.434 C 73.669 256.594 9.352 256.544 -54.965 256.542 C -56.631 256.542 -58.297 256.548 -59.963 256.541 C -69.681 256.501 -72.316 252.317 -67.472 243.569 C -66.537 243.33 -66.317 243.104 -66.253 242.728 C -66.253 242.728 -66.368 242.666 -66.05 242.749 C -65.319 242.803 -64.904 242.773 -64.154 242.98 C -62.995 243.306 -62.173 243.474 -61.35 243.474 C 6.623 243.484 74.597 243.485 142.57 243.455 C 143.859 243.454 145.147 243.075 146.463 242.775 C 146.49 242.678 146.422 242.488 146.422 242.488 Z"/>
  <path fill="#2B211C" opacity="1.000000" stroke="none" d="M 120.959 294.803 C 120.866 284.584 120.866 274.801 120.866 264.695 C 125.004 264.695 128.753 264.695 133.21 264.695 C 133.21 272.716 133.687 280.695 133.103 288.596 C 132.141 301.594 141.147 310.044 154.594 309.951 C 216.228 309.523 277.867 309.781 339.504 309.75 C 352.663 309.743 359.564 302.781 359.594 289.734 C 359.604 285.236 359.601 280.738 359.603 276.24 C 359.604 273.093 359.603 269.946 359.603 266.381 C 363.711 266.381 367.438 266.381 372.084 266.381 C 371.414 278.369 373.757 290.34 370.051 301.996 C 367.645 309.564 362.272 315.016 354.341 319.611 C 367.813 320.962 379.981 322.182 392.149 323.402 C 392.158 324.233 392.167 325.065 392.175 325.897 C 386.094 326.715 380.037 327.882 373.929 328.295 C 308.218 332.738 242.423 332.112 176.641 330.94 C 154.693 330.548 132.769 328.702 110.842 327.387 C 107.445 327.183 104.092 326.263 100.725 324.914 C 112.6 320.907 124.981 321.178 138.608 319.937 C 128.544 313.628 122.283 306.085 120.959 294.803 Z"/>
  <path fill="#29201C" opacity="1.000000" stroke="none" d="M 159.726 158.68 C 194.511 142.561 230.899 138.724 268.29 141.196 C 288.842 142.554 308.89 146.35 327.89 154.516 C 344.276 161.557 358.783 171.096 366.859 187.817 C 368.997 192.243 370.876 197.199 371.184 202.019 C 371.839 212.265 371.384 222.581 371.384 233.273 C 367.776 233.273 364.045 233.273 360.48 233.273 C 351.998 198.974 325.357 182.721 296.219 169.435 C 270.777 157.834 243.722 153.279 215.889 155.67 C 193.46 157.597 172.061 163.73 153.174 176.622 C 139.983 185.625 131.951 197.499 133.131 214.339 C 133.559 220.449 133.2 226.614 133.2 233.216 C 128.994 233.216 125.158 233.216 120.997 233.216 C 120.407 213.255 117.913 192.814 134.219 177.383 C 141.733 170.273 150.94 164.953 159.726 158.68 Z"/>
  <path fill="#281F1C" opacity="1.000000" stroke="none" d="M 225.746 351.634 C 229.075 350.14 232.048 348.037 235.168 347.79 C 242.108 347.242 249.189 347.009 256.088 347.773 C 265.722 348.84 271.21 355.162 271.396 365.04 C 271.697 381.014 271.458 396.997 271.557 412.976 C 271.574 415.807 270.495 416.803 267.733 416.745 C 253.001 416.44 255.941 418.839 255.633 405.279 C 255.542 401.293 255.619 397.304 255.619 392.884 C 248.981 392.884 242.61 392.884 235.521 392.884 C 235.521 399.269 235.382 405.702 235.578 412.126 C 235.682 415.496 234.736 416.879 231.099 416.788 C 217.112 416.438 219.759 418.466 219.603 405.685 C 219.446 392.87 219.513 380.051 219.601 367.235 C 219.641 361.436 220.909 355.998 225.746 351.634 M 255.571 377.662 C 255.569 373.835 255.863 369.973 255.428 366.196 C 255.237 364.538 253.698 361.838 252.528 361.703 C 247.973 361.174 243.292 361.208 238.723 361.672 C 237.563 361.79 235.887 364.201 235.754 365.676 C 235.358 370.069 235.612 374.52 235.612 379.778 C 242.586 379.347 248.946 378.953 255.571 377.662 Z"/>
  <path fill="#29201C" opacity="1.000000" stroke="none" d="M 430.815 416.462 C 430.055 411.41 429.682 406.51 429.454 401.604 C 429.324 398.806 429.43 395.997 429.43 392.824 C 422.691 392.824 416.324 392.824 409.33 392.824 C 409.33 399.247 409.19 405.524 409.384 411.789 C 409.497 415.397 408.32 416.857 404.534 416.779 C 390.894 416.498 393.585 418.341 393.42 405.839 C 393.251 393.023 393.33 380.201 393.405 367.382 C 393.482 354.151 399.685 347.798 412.896 347.375 C 417.219 347.237 421.555 347.24 425.878 347.387 C 438.421 347.813 444.995 354.097 445.242 366.647 C 445.543 381.958 445.279 397.279 445.353 412.595 C 445.367 415.552 444.279 416.881 441.246 416.736 C 437.924 416.578 434.592 416.644 430.815 416.462 M 429.436 367.439 C 429.391 364.104 428.353 361.338 424.543 361.151 C 419.695 360.913 414.565 359.237 410.287 363.145 C 409.948 363.454 409.665 364.021 409.66 364.47 C 409.616 369.362 409.633 374.254 409.633 379.065 C 416.511 379.065 422.759 379.065 429.442 379.065 C 429.442 375.27 429.442 371.803 429.436 367.439 Z"/>
  <path fill="#2C201B" opacity="1.000000" stroke="none" d="M 532.902 396.099 C 530.877 392.898 529.05 390.002 527.223 387.107 C 526.881 387.193 526.54 387.279 526.198 387.365 C 526.198 395.257 525.973 403.159 526.283 411.039 C 526.466 415.692 524.686 417.142 520.22 417.084 C 508.551 416.931 510 417.425 509.97 406.803 C 509.92 388.979 510.064 371.154 509.876 353.333 C 509.83 349.021 511.11 347.465 515.564 347.58 C 527.622 347.89 526.068 346.34 526.191 358.348 C 526.255 364.469 526.203 370.591 527.164 377.155 C 529.653 373.558 532.158 369.973 534.625 366.361 C 537.067 362.786 539.462 359.178 541.893 355.595 C 547.537 347.277 553.516 345.363 564.336 348.745 C 563.586 350.054 562.98 351.323 562.186 352.46 C 556.37 360.786 550.708 369.23 544.581 377.322 C 542.074 380.632 542.397 382.905 544.611 386.087 C 551.344 395.761 557.767 405.65 565.127 416.676 C 558.16 416.676 552.332 416.834 546.529 416.53 C 545.486 416.475 544.357 414.63 543.586 413.41 C 540.03 407.781 536.586 402.08 532.902 396.099 Z"/>
  <path fill="#291F1B" opacity="1.000000" stroke="none" d="M 456.489 390.252 C 456.746 382.642 456.384 375.414 457.408 368.389 C 459.411 354.656 469.636 346.625 483.677 347.016 C 487.659 347.127 491.634 347.617 495.602 348.031 C 498.528 348.337 499.754 349.839 499.783 353.01 C 499.864 361.784 499.957 362.238 491.212 361.067 C 477.125 359.181 472.196 363.769 472.524 378.576 C 472.645 384.049 472.631 389.582 473.457 394.969 C 474.392 401.067 477.718 403.526 483.789 403.629 C 487.449 403.691 491.155 403.804 494.765 403.325 C 498.996 402.764 500.176 404.536 499.726 408.324 C 499.609 409.31 499.624 410.33 499.726 411.318 C 500.058 414.521 498.911 416.541 495.472 416.647 C 489.345 416.836 483.058 417.896 477.12 416.905 C 464.154 414.742 457.659 405.898 456.489 390.252 Z"/>
  <path fill="#312118" opacity="1.000000" stroke="none" d="M 93.313 366.755 C 93.315 382.03 93.303 396.837 93.331 411.645 C 93.335 414.269 93.391 416.66 89.755 416.959 C 86.35 417.24 84.396 416.614 84.507 412.53 C 84.728 404.415 84.572 396.29 84.572 387.833 C 75.094 387.833 66.052 387.833 56.355 387.833 C 56.355 395.773 56.277 403.536 56.392 411.296 C 56.441 414.612 56.324 417.19 51.828 417.113 C 47.598 417.04 47.562 414.577 47.575 411.487 C 47.641 396.514 47.542 381.54 47.619 366.566 C 47.686 353.197 53.38 347.544 66.798 347.299 C 68.961 347.259 71.124 347.262 73.287 347.285 C 87.401 347.436 92.298 352.088 93.313 366.755 M 56.513 362.543 C 56.513 368.287 56.513 374.032 56.513 379.728 C 66.205 379.728 75.236 379.728 84.486 379.728 C 84.486 373.956 84.666 368.633 84.436 363.327 C 84.203 357.955 81.888 355.389 76.503 354.82 C 72.554 354.403 68.512 354.515 64.539 354.791 C 60.34 355.082 57.298 357.13 56.513 362.543 Z"/>
  <path fill="#2B201C" opacity="1.000000" stroke="none" d="M 351.73 415.921 C 351.711 415.588 351.693 415.255 351.669 414.222 C 351.665 396.102 351.665 378.682 351.665 360.675 C 346.899 360.675 342.766 360.854 338.665 360.572 C 337.336 360.481 335 359.194 334.991 358.433 C 334.951 354.873 335.562 351.306 335.941 347.741 C 350.555 347.718 365.17 347.776 379.782 347.613 C 383.447 347.572 385.043 348.802 384.622 352.521 C 384.455 353.996 384.487 355.517 384.626 357 C 384.913 360.085 383.388 361.171 380.527 361.131 C 376.418 361.073 372.307 361.116 367.488 361.116 C 367.488 379.559 367.488 397.443 366.983 415.869 C 361.562 416.248 356.646 416.084 351.73 415.921 Z"/>
  <path fill="#2E2018" opacity="1.000000" stroke="none" d="M 149.623 356.586 C 155.659 369.407 152.083 379.009 138.137 387.176 C 143.783 396.634 149.435 406.103 155.148 415.674 C 148.702 418.029 146.186 417.276 143.346 412.566 C 139.562 406.292 135.516 400.155 132.121 393.676 C 129.918 389.471 127.258 387.289 122.401 387.971 C 120.652 388.217 118.81 387.801 116.162 387.633 C 116.162 396.093 116.127 404.185 116.181 412.275 C 116.2 415.139 115.72 416.966 112.079 416.971 C 108.542 416.976 107.461 415.814 107.483 412.339 C 107.608 392.514 107.576 372.688 107.511 352.863 C 107.502 350.054 107.85 347.643 111.267 347.686 C 119.728 347.791 128.331 347.235 136.59 348.638 C 141.181 349.419 145.195 353.594 149.623 356.586 M 141.812 359.951 C 137.628 355.609 122.615 352.518 117.445 355.058 C 116.729 355.41 115.954 356.523 115.942 357.294 C 115.831 364.895 115.875 372.498 115.875 380.537 C 120.969 380.537 125.441 380.702 129.897 380.505 C 142.057 379.968 146.881 372.125 141.812 359.951 Z"/>
  <path fill="#2C211C" opacity="1.000000" stroke="none" d="M 297.594 416.316 C 297.594 416.316 297.475 415.878 297.423 415.214 C 297.271 398.175 297.17 381.798 297.069 365.422 C 297.115 364.999 297.162 364.576 297.232 363.455 C 295.129 358.547 291.332 360.962 288.414 360.834 C 280.204 360.475 280.353 360.722 280.294 352.667 C 280.268 349.21 281.349 347.999 284.855 348.011 C 298.349 348.061 311.843 347.886 325.337 347.737 C 328.394 347.703 329.792 348.768 329.871 352.103 C 330.073 360.661 330.216 360.659 321.799 360.697 C 320.299 360.704 318.782 360.844 317.302 360.67 C 313.726 360.249 312.719 361.837 312.763 365.267 C 312.922 377.764 312.831 390.265 312.832 402.764 C 312.833 417.766 312.832 417.766 297.594 416.316 Z"/>
  <path fill="#302118" opacity="1.000000" stroke="none" d="M -17.791 357.579 C -17.79 375.884 -17.808 393.704 -17.772 411.524 C -17.766 414.617 -17.938 417.214 -22.166 417.069 C -25.28 416.961 -26.608 415.907 -26.547 412.6 C -26.379 403.46 -26.489 394.314 -26.489 384.73 C -36.997 384.73 -47.213 384.73 -58.075 384.73 C -58.151 386.35 -58.299 388.096 -58.305 389.843 C -58.328 397.504 -58.381 405.166 -58.269 412.825 C -58.227 415.73 -59.169 417.139 -62.274 417.056 C -65.306 416.974 -66.71 416.026 -66.688 412.647 C -66.559 392.496 -66.584 372.344 -66.668 352.193 C -66.681 349.118 -65.849 347.569 -62.472 347.575 C -59.11 347.582 -58.209 349.114 -58.261 352.196 C -58.391 360.005 -58.304 367.817 -58.304 376.073 C -47.8 376.073 -37.577 376.073 -26.49 376.073 C -26.49 368.226 -26.359 360.143 -26.549 352.067 C -26.636 348.382 -24.865 347.021 -21.728 347.779 C -20.244 348.138 -18.509 349.722 -17.975 351.156 C -17.319 352.914 -17.801 355.096 -17.791 357.579 Z"/>
  <path fill="#302117" opacity="1.000000" stroke="none" d="M -3.512 365.625 C -3.191 352.882 2.013 347.604 14.275 347.331 C 19.433 347.217 24.609 347.63 29.755 347.371 C 34.71 347.122 36.622 348.886 34.755 354.986 C 31.132 354.986 27.07 354.959 23.008 354.995 C 19.513 355.026 16.016 355.049 12.527 355.22 C 7.775 355.453 5.174 357.821 5.251 362.805 C 5.323 367.437 5.267 372.071 5.267 377.396 C 13.928 377.396 22.198 377.394 30.467 377.397 C 32.957 377.398 35.582 376.891 35.524 380.927 C 35.469 384.771 33.069 384.588 30.459 384.579 C 22.328 384.548 14.197 384.567 5.566 384.567 C 5.566 391.528 5.189 398.125 5.704 404.651 C 6.025 408.722 9.787 409.533 13.293 409.577 C 20.419 409.664 27.547 409.603 34.509 409.603 C 36.404 416.526 35.947 417.273 29.767 417.387 C 24.109 417.492 18.437 417.642 12.788 417.386 C 2.108 416.902 -3.365 411.218 -3.477 400.568 C -3.598 389.08 -3.51 377.591 -3.512 365.625 Z"/>
  <path fill="#372519" opacity="1.000000" stroke="none" d="M 181.563 389.47 C 181.563 378.013 181.563 367.055 181.563 355.287 C 176.279 355.287 171.366 355.247 166.454 355.303 C 163.755 355.334 161.499 355.259 161.499 351.505 C 161.499 347.814 163.682 347.594 166.416 347.6 C 179.562 347.63 192.709 347.643 205.855 347.593 C 208.571 347.582 210.314 348.182 210.325 351.429 C 210.336 354.63 208.723 355.375 205.937 355.318 C 200.98 355.216 196.019 355.289 190.364 355.289 C 190.364 357.527 190.364 359.289 190.364 361.051 C 190.363 377.859 190.312 394.666 190.403 411.473 C 190.422 414.933 189.958 417.178 185.625 417.142 C 181.144 417.106 181.54 414.338 181.552 411.437 C 181.581 404.282 181.562 397.126 181.563 389.47 Z"/>
  <path fill="#302117" opacity="1.000000" stroke="none" d="M 229.682 92.701 C 231.425 87.773 232.982 83.205 234.701 78.699 C 238.598 68.477 237.815 58.557 233.438 48.137 C 234.791 49.02 236.409 49.665 237.454 50.825 C 244.711 58.883 246.859 68.361 244.047 78.693 C 242.217 85.414 239.436 91.871 237.256 98.504 C 235.619 103.485 233.294 108.468 234.709 113.886 C 235.64 117.447 237.148 120.857 238.31 124.092 C 230.427 122.333 224.008 108.969 229.682 92.701 Z"/>
  <path fill="#322116" opacity="1.000000" stroke="none" d="M 262.852 79.688 C 260.914 84.708 259.078 89.321 257.244 93.934 C 254.766 100.168 252.289 106.403 249.788 112.699 C 246.872 108.938 245.903 104.127 247.055 99.256 C 248.423 93.477 250.306 87.763 252.552 82.26 C 255.668 74.627 255.911 67.489 250.374 60.651 C 259.486 61.084 264.334 68.478 262.852 79.688 Z"/>
  <path fill="#43250E" opacity="1.000000" stroke="none" d="M 133.451 454.414 C 132.079 456.271 130.81 457.748 129.54 459.225 C 128.456 457.758 126.985 456.437 126.362 454.795 C 124.774 450.613 123.564 446.288 121.953 441.236 C 120.09 446.674 118.597 451.495 116.733 456.168 C 116.233 457.419 114.725 458.672 113.434 459.027 C 112.827 459.194 111.163 457.385 110.787 456.212 C 108.571 449.304 106.593 442.32 104.538 435.37 C 107.815 433.888 109.217 434.85 109.904 437.827 C 110.805 441.735 112.04 445.566 113.131 449.431 C 113.538 449.379 113.945 449.327 114.353 449.275 C 115.783 445.844 117.085 442.35 118.699 439.008 C 119.47 437.411 120.835 436.1 121.93 434.66 C 123.106 436.221 124.7 437.621 125.375 439.374 C 126.964 443.502 128.115 447.798 129.564 452.413 C 131.869 446.172 133.907 440.522 136.136 434.949 C 136.266 434.621 137.929 434.906 139.596 434.906 C 137.502 441.536 135.527 447.786 133.451 454.414 Z"/>
  <path fill="#3E2410" opacity="1.000000" stroke="none" d="M 447.104 458.201 C 440.811 459.752 436.629 458.05 434.179 453.247 C 431.548 448.088 432.661 440.832 436.662 437.065 C 440.415 433.53 445.239 433.475 450.289 436.607 C 451.899 435.792 453.259 435.103 455.109 434.167 C 455.109 443.444 455.718 451.918 454.931 460.261 C 454.206 467.946 443.769 472.379 437.062 468.442 C 436.182 467.926 435.88 466.424 435.551 465.818 C 440.248 465.195 444.512 465.198 448.294 463.85 C 449.821 463.306 450.294 459.806 450.302 456.864 C 449.351 457.255 448.4 457.647 447.104 458.201 M 438.095 442.955 C 438.167 445.704 437.338 448.989 438.564 451.053 C 439.795 453.127 443.014 454.989 445.468 455.133 C 448.73 455.324 450.567 452.488 450.698 449.046 C 450.742 447.885 450.706 446.722 450.75 445.562 C 450.892 441.866 449.716 438.849 445.847 437.937 C 442.253 437.09 439.839 438.985 438.095 442.955 Z"/>
  <path fill="#42250F" opacity="1.000000" stroke="none" d="M 324.449 425.876 C 324.473 436.157 324.527 445.98 324.44 455.802 C 324.43 456.919 323.63 458.028 323.197 459.141 C 322.056 458.579 320.914 458.018 319.284 457.216 C 312.082 460.598 308.178 460.37 304.439 455.942 C 300.688 451.499 300.511 443.574 304.054 438.67 C 307.348 434.11 311.713 433.276 319.38 436.061 C 319.38 432.052 319.38 428.213 319.38 422.57 C 321.816 423.941 323.127 424.679 324.449 425.876 M 308.49 440.124 C 307.899 443.61 306.537 447.181 306.91 450.561 C 307.398 454.982 312.339 457.032 316.131 455.159 C 319.446 453.522 321.111 445.899 319.098 441.576 C 317.386 437.9 313.597 437.142 308.49 440.124 Z"/>
  <path fill="#CD7E33" opacity="1.000000" stroke="none" d="M 297.636 416.727 C 312.832 417.766 312.833 417.766 312.832 402.764 C 312.831 390.265 312.922 377.764 312.763 365.267 C 312.719 361.837 313.726 360.249 317.302 360.67 C 318.782 360.844 320.299 360.704 321.799 360.697 C 330.216 360.659 330.073 360.661 329.871 352.103 C 329.792 348.768 328.394 347.703 325.337 347.737 C 311.843 347.886 298.349 348.061 284.855 348.011 C 281.349 347.999 280.268 349.21 280.294 352.667 C 280.353 360.722 280.204 360.475 288.414 360.834 C 291.332 360.962 295.129 358.547 297.161 363.141 C 293.306 363.165 289.55 362.634 285.779 362.483 C 280.07 362.255 278.639 361.003 278.521 355.497 C 278.327 346.494 278.327 346.492 287.557 346.492 C 299.858 346.491 312.159 346.489 324.461 346.499 C 330.816 346.504 331.474 347.196 331.486 353.77 C 331.5 361.367 330.685 362.408 324.683 362.446 C 314.476 362.51 314.475 362.51 314.476 372.657 C 314.476 385.79 314.356 398.924 314.543 412.054 C 314.611 416.802 312.783 418.938 308.072 418.43 C 304.601 418.056 301.142 417.572 297.636 416.727 Z"/>
  <path fill="#362012" opacity="1.000000" stroke="none" d="M 260.808 442.534 C 259.679 438.8 257.034 437.157 254.217 438.608 C 252.143 439.676 250.194 442.479 249.72 444.819 C 248.974 448.501 249.639 452.452 249.425 456.273 C 249.369 457.268 248.27 458.204 247.649 459.167 C 246.73 458.281 245.027 457.408 245.01 456.505 C 244.826 446.343 244.806 436.175 245.05 426.016 C 245.075 424.991 247.113 424.014 248.216 423.015 C 248.625 423.338 249.035 423.661 249.444 423.984 C 249.444 428.245 249.444 432.506 249.444 437.299 C 251.122 436.383 252.199 435.686 253.36 435.179 C 258.87 432.77 264.752 435.732 265.363 441.644 C 265.874 446.594 265.663 451.634 265.502 456.625 C 265.474 457.495 264.109 458.323 263.361 459.17 C 262.683 458.245 261.49 457.359 261.417 456.389 C 261.081 451.919 261.059 447.426 260.808 442.534 Z"/>
  <path fill="#42250F" opacity="1.000000" stroke="none" d="M 396.666 451.369 C 396.657 446.893 396.561 442.898 396.692 438.91 C 396.736 437.559 397.353 436.227 397.708 434.886 C 399.135 435.367 400.562 435.847 402.324 436.44 C 411.669 431.524 417.489 435.091 417.545 446.283 C 417.561 449.61 417.73 452.953 417.444 456.255 C 417.353 457.302 416.017 458.241 415.25 459.23 C 414.447 458.207 413.035 457.231 412.951 456.151 C 412.655 452.348 412.868 448.507 412.786 444.683 C 412.711 441.211 411.717 438.207 407.523 438.267 C 403.449 438.326 401.627 440.958 401.49 444.771 C 401.358 448.426 401.649 452.105 401.349 455.74 C 401.249 456.958 399.902 458.074 399.125 459.236 C 398.307 458.105 397.189 457.077 396.759 455.815 C 396.352 454.622 396.669 453.183 396.666 451.369 Z"/>
  <path fill="#3D220E" opacity="1.000000" stroke="none" d="M 156.688 436.415 C 163.295 433.297 168.445 433.802 172.18 437.7 C 175.749 441.423 176.562 448.016 174.08 453.115 C 171.845 457.708 167.106 460.2 161.64 459.478 C 156.88 458.85 153.729 456.078 152.33 451.551 C 150.551 445.795 151.749 440.716 156.688 436.415 M 168.462 453.785 C 169.085 450.331 170.423 446.819 170.146 443.439 C 169.812 439.376 165.427 436.395 162.338 437.939 C 159.995 439.112 157.648 441.693 156.821 444.157 C 155.531 447.999 156.265 452.131 159.834 454.917 C 162.583 457.064 165.379 456.561 168.462 453.785 Z"/>
  <path fill="#3B230E" opacity="1.000000" stroke="none" d="M 515.934 451.546 C 514.679 441.486 517.89 435.653 524.967 434.483 C 531.706 433.37 536.855 436.596 538.652 443.056 C 540.494 449.68 537.433 456.452 531.534 458.798 C 525.188 461.323 519.521 458.804 515.934 451.546 M 520.251 444.649 C 519.662 451.713 522.88 456.732 527.68 456.239 C 531.193 455.878 534.228 452.009 534.48 447.568 C 534.75 442.832 532.218 438.294 528.591 437.799 C 524.083 437.183 521.473 439.626 520.251 444.649 Z"/>
  <path fill="#40230E" opacity="1.000000" stroke="none" d="M 345.075 468.214 C 343.332 468.495 341.887 468.563 340.441 468.631 C 341.125 467.399 341.531 465.831 342.543 464.993 C 346.327 461.86 348.483 458.77 345.843 453.508 C 343.103 448.044 341.268 442.126 339.054 436.399 C 338.943 436.113 339.002 435.761 338.97 435.261 C 341.853 433.829 343.429 434.905 344.435 437.803 C 346.116 442.648 347.97 447.433 349.892 452.622 C 352.451 446.416 354.776 440.654 357.29 434.975 C 357.446 434.624 359.087 434.93 361.025 434.93 C 359.738 438.55 358.794 441.795 357.453 444.866 C 353.964 452.852 352.388 461.856 345.075 468.214 Z"/>
  <path fill="#3D220E" opacity="1.000000" stroke="none" d="M 66.772 459.04 C 53.46 460.626 46.449 452.788 50.694 441.656 C 52.872 435.944 58.646 432.997 64.374 434.673 C 69.013 436.031 71.617 441.104 70.645 447.632 C 65.507 447.632 60.266 447.632 55.076 447.632 C 54.687 453.02 56.44 455.261 61.158 455.685 C 62.955 455.846 64.804 455.395 66.609 455.522 C 67.557 455.589 68.46 456.301 69.384 456.722 C 68.651 457.451 67.918 458.18 66.772 459.04 M 64.553 444.506 C 65.067 443.326 66.24 441.298 65.99 441.103 C 64.187 439.704 62.078 437.709 60.1 437.745 C 56.647 437.808 54.778 440.442 54.651 444.525 C 57.782 444.525 60.725 444.525 64.553 444.506 Z"/>
  <path fill="#40230E" opacity="1.000000" stroke="none" d="M -23.234 459.176 C -25.453 459.047 -27.467 458.317 -29.062 458.847 C -34.208 460.557 -38.888 459.035 -40.263 454.735 C -41.646 450.411 -38.994 446.053 -33.907 444.589 C -31.544 443.909 -29.082 443.572 -26.678 443.082 C -27.275 437.378 -28.158 437.042 -38.102 438.812 C -38.102 437.864 -38.485 436.597 -38.04 436.143 C -35.073 433.119 -26.05 433.949 -23.452 437.345 C -20.966 440.594 -20.55 455.34 -23.234 459.176 M -32.656 456.262 C -30.493 454.814 -27.974 453.674 -26.33 451.776 C -25.604 450.938 -26.651 448.564 -26.893 446.887 C -29.629 447.746 -32.958 447.919 -34.947 449.641 C -37.304 451.681 -36.407 454.503 -32.656 456.262 Z"/>
  <path fill="#42250F" opacity="1.000000" stroke="none" d="M 503.675 437.25 C 501.994 438.042 500.449 438.478 498.241 439.102 C 498.241 444.3 498.393 449.759 498.135 455.198 C 498.07 456.578 496.703 457.897 495.934 459.244 C 495.115 457.956 493.703 456.718 493.589 455.37 C 493.267 451.566 493.598 447.712 493.431 443.888 C 493.335 441.69 494.712 438.691 490.878 437.914 C 490.612 437.86 490.491 435.459 490.598 435.434 C 494.402 434.556 493.348 431.035 494.292 428.684 C 495.931 424.605 499.913 422.016 503.644 423.018 C 504.459 423.236 505.109 424.07 505.834 424.621 C 505.101 425.294 504.473 426.333 503.618 426.579 C 498.658 428.004 498.405 428.274 498.546 433.246 C 500.491 434.593 502.151 435.743 503.675 437.25 Z"/>
  <path fill="#CC8A4D" opacity="1.000000" stroke="none" d="M -64.49 242.744 C -64.904 242.773 -65.319 242.803 -66.045 242.814 C -65.055 242.349 -63.753 241.514 -62.45 241.513 C 6.354 241.446 75.157 241.448 143.961 241.463 C 144.603 241.463 145.246 241.721 146.155 242.174 C 146.422 242.488 146.49 242.678 146.02 242.635 C 144.72 242.55 143.89 242.47 143.06 242.47 C 75.032 242.468 7.005 242.47 -61.023 242.486 C -62.179 242.486 -63.334 242.654 -64.49 242.744 Z"/>
  <path fill="#462810" opacity="1.000000" stroke="none" d="M -59.647 445.489 C -59.647 447.632 -59.627 449.296 -59.651 450.959 C -59.689 453.564 -59.108 455.52 -55.898 455.706 C -55.156 455.75 -54.486 457.022 -53.783 457.728 C -54.63 458.328 -55.41 459.298 -56.334 459.463 C -60.694 460.243 -63.755 457.976 -64.248 453.368 C -64.6 450.075 -64.308 446.718 -64.449 443.396 C -64.539 441.298 -63.428 438.489 -67.162 438.108 C -67.529 438.071 -67.824 436.799 -68.033 436.067 C -68.099 435.836 -67.83 435.446 -67.621 435.21 C -66.038 433.421 -64.504 431.577 -62.788 429.924 C -62.312 429.466 -61.274 429.593 -60.227 429.403 C -59.874 431.069 -59.577 432.473 -59.468 432.986 C -57.154 434.553 -55.379 435.754 -53.604 436.956 C -55.294 437.69 -56.984 438.424 -59.647 439.581 C -59.647 440.825 -59.647 442.918 -59.647 445.489 Z"/>
  <path fill="#3D220E" opacity="1.000000" stroke="none" d="M -3.384 436.532 C -0.077 435.729 2.911 435.001 5.937 434.767 C 6.645 434.713 7.483 436.336 8.261 437.187 C 7.3 437.504 6.357 437.983 5.374 438.086 C 4.591 438.168 3.601 437.423 2.983 437.691 C 1.575 438.302 -0.105 439.058 -0.787 440.259 C -1.147 440.893 0.094 442.887 1.075 443.72 C 2.302 444.761 4.425 444.881 5.411 446.038 C 7.102 448.023 9.535 450.71 9.22 452.721 C 8.852 455.066 6.241 457.784 3.915 458.886 C 1.814 459.88 -1.237 459.067 -3.822 458.712 C -4.563 458.61 -5.142 457.328 -5.795 456.587 C -4.782 456.192 -3.786 455.532 -2.752 455.465 C -1.284 455.371 0.304 456.093 1.668 455.76 C 2.931 455.452 4.615 454.398 4.915 453.335 C 5.199 452.325 4.201 450.598 3.272 449.697 C 2.253 448.709 0.655 448.328 -0.67 447.644 C -5.912 444.935 -6.714 442.033 -3.384 436.532 Z"/>
  <path fill="#3B230E" opacity="1.000000" stroke="none" d="M 223.717 445.42 C 223.828 447.853 223.58 449.963 224.175 451.801 C 224.643 453.245 226.121 454.379 227.209 455.598 C 227.949 456.427 228.79 457.166 229.586 457.945 C 228.665 458.463 227.788 459.314 226.817 459.441 C 222.615 459.99 219.928 457.747 219.559 453.196 C 219.29 449.887 219.539 446.539 219.435 443.213 C 219.368 441.092 220.41 438.277 216.607 438.062 C 216.274 438.043 215.569 436.359 215.79 436.104 C 217.874 433.708 220.122 431.456 222.805 428.659 C 223.523 431.05 223.979 432.568 224.501 434.309 C 225.805 434.439 227.166 434.372 228.371 434.773 C 229.105 435.017 229.827 435.901 230.098 436.661 C 230.216 436.994 229.138 438.256 228.699 438.208 C 223.036 437.594 223.689 441.495 223.717 445.42 Z"/>
  <path fill="#3D220E" opacity="1.000000" stroke="none" d="M 32.044 454.988 C 33.735 456.055 35.092 456.859 36.45 457.662 C 34.803 458.26 32.53 459.835 31.636 459.261 C 29.543 457.918 27.217 455.78 26.625 453.532 C 25.763 450.26 26.62 446.574 26.192 443.132 C 25.979 441.423 24.538 439.865 23.648 438.241 C 23.285 437.578 22.442 436.523 22.611 436.325 C 24.745 433.83 27.023 431.46 29.898 428.379 C 30.399 431.069 30.663 432.49 30.8 433.224 C 33.101 434.568 34.983 435.668 36.866 436.767 C 35.066 437.571 33.266 438.375 30.263 439.716 C 30.686 444.101 31.199 449.413 32.044 454.988 Z"/>
  <path fill="#462810" opacity="1.000000" stroke="none" d="M 194.967 436.583 C 196.906 436.066 198.575 435.033 200.39 434.549 C 201.109 434.357 202.448 435.19 202.936 435.93 C 203.22 436.361 202.486 438.197 202.02 438.276 C 194.67 439.517 195.553 445.129 195.502 450.254 C 195.482 452.248 195.766 454.291 195.406 456.217 C 195.198 457.328 193.98 458.249 193.217 459.256 C 192.379 458.319 190.85 457.408 190.814 456.441 C 190.576 450.134 190.603 443.815 190.704 437.503 C 190.719 436.582 191.594 435.675 192.071 434.762 C 192.966 435.27 193.86 435.778 194.967 436.583 Z"/>
  <path fill="#462810" opacity="1.000000" stroke="none" d="M 554.471 445.494 C 554.461 442.682 554.305 440.349 554.503 438.047 C 554.601 436.914 555.354 435.838 555.811 434.736 C 556.954 435.348 558.097 435.96 559.447 436.682 C 561.045 435.927 563.189 434.914 565.333 433.901 C 565.813 434.347 566.293 434.793 566.774 435.24 C 565.944 436.376 565.343 438.119 564.241 438.535 C 560.759 439.851 559.332 442.232 559.329 445.752 C 559.325 448.735 559.567 451.75 559.199 454.688 C 559 456.276 557.749 457.731 556.973 459.246 C 556.139 457.809 554.783 456.441 554.585 454.921 C 554.202 451.988 554.472 448.969 554.471 445.494 Z"/>
  <path fill="#411A00" opacity="1.000000" stroke="none" d="M 559.64 243.92 C 557.474 244.041 555.188 243.522 552.901 243.517 C 522.01 243.45 491.118 243.454 459.739 243.39 C 461.009 243.031 462.764 242.457 464.521 242.453 C 494.49 242.398 524.459 242.396 554.427 242.461 C 556.125 242.465 557.823 243.15 559.64 243.92 Z"/>
  <path fill="#CD7E33" opacity="1.000000" stroke="none" d="M 335.511 347.713 C 335.562 351.306 334.951 354.873 334.991 358.433 C 335 359.194 337.336 360.481 338.665 360.572 C 342.766 360.854 346.899 360.675 351.665 360.675 C 351.665 378.682 351.665 396.102 351.59 413.983 C 351.184 412.723 350.574 411.005 350.565 409.283 C 350.487 395.169 350.425 381.053 350.591 366.941 C 350.631 363.466 349.565 361.963 346.063 362.435 C 345.411 362.524 344.736 362.446 344.072 362.445 C 333.27 362.437 331.112 359.639 333.717 348.899 C 333.835 348.412 334.612 348.086 335.511 347.713 Z"/>
  <path fill="#CD7E33" opacity="1.000000" stroke="none" d="M 296.718 365.571 C 297.17 381.798 297.271 398.175 297.312 415.016 C 296.678 414.449 295.612 413.42 295.604 412.383 C 295.497 397.574 295.521 382.763 295.57 367.952 C 295.573 367.207 296.089 366.464 296.718 365.571 Z"/>
  <path fill="#411A00" opacity="1.000000" stroke="none" d="M 379.546 436.992 C 379.565 443.586 379.669 449.741 379.489 455.887 C 379.457 457.003 378.267 458.086 377.611 459.184 C 376.741 458.088 375.166 457.022 375.118 455.891 C 374.862 449.917 374.91 443.924 375.062 437.942 C 375.089 436.874 376.103 435.831 376.661 434.776 C 377.618 435.367 378.576 435.958 379.546 436.992 M 378.486 438.641 C 378.14 438.07 377.793 437.5 376.976 436.157 C 376.976 443.712 376.976 450.265 376.976 456.818 C 377.487 456.826 377.999 456.834 378.51 456.842 C 378.51 451.062 378.51 445.282 378.486 438.641 Z"/>
  <path fill="#CD7E33" opacity="1.000000" stroke="none" d="M 351.784 416.343 C 356.646 416.084 361.562 416.248 366.928 416.32 C 364.541 419.168 355.803 419.469 351.784 416.343 Z"/>
  <path fill="#CC8A4D" opacity="1.000000" stroke="none" d="M -66.5 242.71 C -66.317 243.104 -66.537 243.33 -67.158 243.388 C -67.319 243.016 -67.1 242.79 -66.5 242.71 Z"/>
  <path fill="#411A00" opacity="1.000000" stroke="none" d="M -64.154 242.98 C -63.334 242.654 -62.179 242.486 -61.023 242.486 C 7.005 242.47 75.032 242.468 143.06 242.47 C 143.89 242.47 144.72 242.55 145.992 242.733 C 145.147 243.075 143.859 243.454 142.57 243.455 C 74.597 243.485 6.623 243.484 -61.35 243.474 C -62.173 243.474 -62.995 243.306 -64.154 242.98 Z"/>
  <path fill="#EA8626" opacity="1.000000" stroke="none" d="M 255.438 378.111 C 248.946 378.953 242.586 379.347 235.612 379.778 C 235.612 374.52 235.358 370.069 235.754 365.676 C 235.887 364.201 237.563 361.79 238.723 361.672 C 243.292 361.208 247.973 361.174 252.528 361.703 C 253.698 361.838 255.237 364.538 255.428 366.196 C 255.863 369.973 255.569 373.835 255.438 378.111 Z"/>
  <path fill="#EA8626" opacity="1.000000" stroke="none" d="M 429.439 367.888 C 429.442 371.803 429.442 375.27 429.442 379.065 C 422.759 379.065 416.511 379.065 409.633 379.065 C 409.633 374.254 409.616 369.362 409.66 364.47 C 409.665 364.021 409.948 363.454 410.287 363.145 C 414.565 359.237 419.695 360.913 424.543 361.151 C 428.353 361.338 429.391 364.104 429.439 367.888 Z"/>
  <path fill="#EA8626" opacity="1.000000" stroke="none" d="M 56.562 362.109 C 57.298 357.13 60.34 355.082 64.539 354.791 C 68.512 354.515 72.554 354.403 76.503 354.82 C 81.888 355.389 84.203 357.955 84.436 363.327 C 84.666 368.633 84.486 373.956 84.486 379.728 C 75.236 379.728 66.205 379.728 56.513 379.728 C 56.513 374.032 56.513 368.287 56.562 362.109 Z"/>
  <path fill="#E98525" opacity="1.000000" stroke="none" d="M 142.034 360.28 C 146.881 372.125 142.057 379.968 129.897 380.505 C 125.441 380.702 120.969 380.537 115.875 380.537 C 115.875 372.498 115.831 364.895 115.942 357.294 C 115.954 356.523 116.729 355.41 117.445 355.058 C 122.615 352.518 137.628 355.609 142.034 360.28 Z"/>
  <path fill="#E78629" opacity="1.000000" stroke="none" d="M 438.237 442.584 C 439.839 438.985 442.253 437.09 445.847 437.937 C 449.716 438.849 450.892 441.866 450.75 445.562 C 450.706 446.722 450.742 447.885 450.698 449.046 C 450.567 452.488 448.73 455.324 445.468 455.133 C 443.014 454.989 439.795 453.127 438.564 451.053 C 437.338 448.989 438.167 445.704 438.237 442.584 Z"/>
  <path fill="#EA8626" opacity="1.000000" stroke="none" d="M 308.751 439.841 C 313.597 437.142 317.386 437.9 319.098 441.576 C 321.111 445.899 319.446 453.522 316.131 455.159 C 312.339 457.032 307.398 454.982 306.91 450.561 C 306.537 447.181 307.899 443.61 308.751 439.841 Z"/>
  <path fill="#E78629" opacity="1.000000" stroke="none" d="M 168.204 454.074 C 165.379 456.561 162.583 457.064 159.834 454.917 C 156.265 452.131 155.531 447.999 156.821 444.157 C 157.648 441.693 159.995 439.112 162.338 437.939 C 165.427 436.395 169.812 439.376 170.146 443.439 C 170.423 446.819 169.085 450.331 168.204 454.074 Z"/>
  <path fill="#E78629" opacity="1.000000" stroke="none" d="M 520.34 444.278 C 521.473 439.626 524.083 437.183 528.591 437.799 C 532.218 438.294 534.75 442.832 534.48 447.568 C 534.228 452.009 531.193 455.878 527.68 456.239 C 522.88 456.732 519.662 451.713 520.34 444.278 Z"/>
  <path fill="#DC832E" opacity="1.000000" stroke="none" d="M 64.11 444.515 C 60.725 444.525 57.782 444.525 54.651 444.525 C 54.778 440.442 56.647 437.808 60.1 437.745 C 62.078 437.709 64.187 439.704 65.99 441.103 C 66.24 441.298 65.067 443.326 64.11 444.515 Z"/>
  <path fill="#DC832E" opacity="1.000000" stroke="none" d="M -33.012 456.157 C -36.407 454.503 -37.304 451.681 -34.947 449.641 C -32.958 447.919 -29.629 447.746 -26.893 446.887 C -26.651 448.564 -25.604 450.938 -26.33 451.776 C -27.974 453.674 -30.493 454.814 -33.012 456.157 Z"/>
  <path fill="#281F1C" opacity="1.000000" stroke="none" d="M 378.498 439.072 C 378.51 445.282 378.51 451.062 378.51 456.842 C 377.999 456.834 377.487 456.826 376.976 456.818 C 376.976 450.265 376.976 443.712 376.976 436.157 C 377.793 437.5 378.14 438.07 378.498 439.072 Z"/>
</svg>